<svg width="24" height="24" viewBox="0 0 24 24" fill="none" xmlns="http://www.w3.org/2000/svg">
<path fill-rule="evenodd" clip-rule="evenodd" d="M4.4 3.4V20.6H19.6V3.4H4.4ZM3.4 2C3.17909 2 3 2.17909 3 2.4V21.6C3 21.8209 3.17909 22 3.4 22H20.6C20.8209 22 21 21.8209 21 21.6V2.4C21 2.17909 20.8209 2 20.6 2H3.4Z" fill="#151515"/>
<path fill-rule="evenodd" clip-rule="evenodd" d="M7.9998 5.5C7.61321 5.5 7.2998 5.8134 7.2998 6.2C7.2998 6.5866 7.61321 6.9 7.9998 6.9C8.3864 6.9 8.6998 6.5866 8.6998 6.2C8.6998 5.8134 8.3864 5.5 7.9998 5.5ZM7.9998 8.5C7.61321 8.5 7.2998 8.8134 7.2998 9.2V17.8C7.2998 18.1866 7.61321 18.5 7.9998 18.5C8.3864 18.5 8.6998 18.1866 8.6998 17.8V9.2C8.6998 8.8134 8.3864 8.5 7.9998 8.5ZM11.2998 6.2C11.2998 5.8134 11.6132 5.5 11.9998 5.5C12.3864 5.5 12.6998 5.8134 12.6998 6.2C12.6998 6.5866 12.3864 6.9 11.9998 6.9C11.6132 6.9 11.2998 6.5866 11.2998 6.2ZM11.9998 8.5C11.6132 8.5 11.2998 8.8134 11.2998 9.2V17.8C11.2998 18.1866 11.6132 18.5 11.9998 18.5C12.3864 18.5 12.6998 18.1866 12.6998 17.8V9.2C12.6998 8.8134 12.3864 8.5 11.9998 8.5ZM15.2998 6.2C15.2998 5.8134 15.6132 5.5 15.9998 5.5C16.3864 5.5 16.6998 5.8134 16.6998 6.2C16.6998 6.5866 16.3864 6.9 15.9998 6.9C15.6132 6.9 15.2998 6.5866 15.2998 6.2ZM15.9998 8.5C15.6132 8.5 15.2998 8.8134 15.2998 9.2V17.8C15.2998 18.1866 15.6132 18.5 15.9998 18.5C16.3864 18.5 16.6998 18.1866 16.6998 17.8V9.2C16.6998 8.8134 16.3864 8.5 15.9998 8.5Z" fill="#151515"/>
</svg>
