<svg width="24" height="24" viewBox="0 0 24 24" fill="none" xmlns="http://www.w3.org/2000/svg">
<path d="M14.8976 14.0734C15.171 13.8 15.171 13.3568 14.8976 13.0834C14.6242 12.8101 14.181 12.8101 13.9077 13.0834L11.4026 15.5885L10.0929 14.2788C9.81956 14.0054 9.37634 14.0054 9.10297 14.2788C8.82961 14.5521 8.82961 14.9953 9.10297 15.2687L11.1198 17.2855C11.276 17.4417 11.5293 17.4417 11.6855 17.2855L14.8976 14.0734Z" fill="#151515"/>
<path fill-rule="evenodd" clip-rule="evenodd" d="M6.9998 3C7.3864 3 7.6998 3.3134 7.6998 3.7V5H16.2998V3.7C16.2998 3.3134 16.6132 3 16.9998 3C17.3864 3 17.6998 3.3134 17.6998 3.7V5H21.6C21.8209 5 22 5.17909 22 5.4V20.6C22 20.8209 21.8209 21 21.6 21H2.4C2.17909 21 2 20.8209 2 20.6V5.4C2 5.17909 2.17909 5 2.4 5H6.2998V3.7C6.2998 3.3134 6.61321 3 6.9998 3ZM20.6 6.4V9.30005H3.4V6.4H20.6ZM3.4 19.6V10.7H20.6V19.6H3.4Z" fill="#151515"/>
</svg>
