<svg width="24" height="24" viewBox="0 0 24 24" fill="none" xmlns="http://www.w3.org/2000/svg">
<path d="M3.42734 11.9531C3.42734 16.7028 7.27769 20.5531 12.0273 20.5531C13.5452 20.5531 14.9674 20.1611 16.2023 19.4738L16.5427 20.0855L16.8831 20.6971C15.4453 21.4973 13.7896 21.9531 12.0273 21.9531C6.5045 21.9531 2.02734 17.476 2.02734 11.9531C2.02734 6.43028 6.5045 1.95312 12.0273 1.95312C17.5502 1.95312 22.0273 6.43028 22.0273 11.9531C22.0273 13.3753 21.7304 14.7282 21.1953 15.9531C21.0673 16.246 20.9257 16.5315 20.7713 16.8089L19.548 16.1281C19.6808 15.8896 19.8024 15.6442 19.9124 15.3926C20.3718 14.3411 20.6273 13.1788 20.6273 11.9531C20.6273 7.20348 16.777 3.35312 12.0273 3.35312C7.27769 3.35312 3.42734 7.20348 3.42734 11.9531Z" fill="#151515"/>
<path d="M20.7713 16.8089C20.7197 16.9017 20.7049 17.0107 20.7324 17.1133L21.8484 21.2844C21.928 21.5817 21.656 21.8538 21.3586 21.7742L17.1875 20.6582C17.085 20.6307 16.9759 20.6455 16.8831 20.6971L16.5427 20.0855L16.2023 19.4738C16.6019 19.2515 17.0839 19.1812 17.5494 19.3057L20.0487 19.9745L19.3799 17.4751C19.2554 17.0097 19.3257 16.5277 19.548 16.1281L20.7713 16.8089Z" fill="#151515"/>
<path d="M10.0273 11.9531C10.0273 12.5054 9.57963 12.9531 9.02734 12.9531C8.47506 12.9531 8.02734 12.5054 8.02734 11.9531C8.02734 11.4008 8.47506 10.9531 9.02734 10.9531C9.57963 10.9531 10.0273 11.4008 10.0273 11.9531Z" fill="#151515"/>
<path d="M15.0273 12.9531C15.5796 12.9531 16.0273 12.5054 16.0273 11.9531C16.0273 11.4008 15.5796 10.9531 15.0273 10.9531C14.4751 10.9531 14.0273 11.4008 14.0273 11.9531C14.0273 12.5054 14.4751 12.9531 15.0273 12.9531Z" fill="#151515"/>
</svg>
