<svg width="20" height="20" viewBox="0 0 20 20" fill="none" xmlns="http://www.w3.org/2000/svg">
<path fill-rule="evenodd" clip-rule="evenodd" d="M10 20C15.5228 20 20 15.5228 20 10C20 4.47715 15.5228 0 10 0C4.47715 0 0 4.47715 0 10C0 15.5228 4.47715 20 10 20ZM14.4948 7.87149C14.7682 7.59812 14.7682 7.15491 14.4948 6.88154C14.2214 6.60817 13.7782 6.60817 13.5048 6.88154L8.95687 11.4295L6.44795 9.33876C6.15096 9.09126 5.70956 9.13139 5.46207 9.42838C5.21457 9.72538 5.2547 10.1668 5.55169 10.4143L8.76216 13.0897C8.92109 13.2221 9.15479 13.2115 9.30107 13.0652L14.4948 7.87149Z" fill="#4D6C56"/>
</svg>
