<svg width="20" height="20" viewBox="0 0 20 20" fill="none" xmlns="http://www.w3.org/2000/svg">
<path fill-rule="evenodd" clip-rule="evenodd" d="M13.1028 2.00396L15 4L16.8828 5.88284C16.9579 5.95786 17 6.0596 17 6.16569V7V16.6V17.6C17 17.8209 16.8209 18 16.6 18H15.6H4.4H3.4C3.17909 18 3 17.8209 3 17.6V16.6V3.4V2.4C3 2.17909 3.17909 2 3.4 2H4.4H11.7028H12H13.0991H13.1028V2.00396ZM15.6 7.4H12.4028H12.1028C11.8819 7.4 11.7028 7.22091 11.7028 7V6.7V3.4H4.4V16.6H15.6V7.4ZM15.0201 6L14.0101 4.98995L13.9975 4.97738L13.9852 4.9645L13.1028 4.03611V6H15.0201Z" fill="#FFCCCC"/>
</svg>
