<svg width="24" height="24" viewBox="0 0 24 24" fill="none" xmlns="http://www.w3.org/2000/svg">
<path fill-rule="evenodd" clip-rule="evenodd" d="M4.2998 3.40005C4.2998 2.79254 4.79229 2.30005 5.3998 2.30005H18.5998C19.2073 2.30005 19.6998 2.79254 19.6998 3.40005V20.6C19.6998 21.2076 19.2073 21.7001 18.5998 21.7001H5.3998C4.79229 21.7001 4.2998 21.2076 4.2998 20.6V17.4C4.2998 17.0134 4.61321 16.7 4.9998 16.7C5.3864 16.7 5.6998 17.0134 5.6998 17.4V20.3H18.2998V3.70005H5.6998V6.60005C5.6998 6.98665 5.3864 7.30005 4.9998 7.30005C4.61321 7.30005 4.2998 6.98665 4.2998 6.60005V3.40005ZM4.2998 12C4.2998 11.6134 4.61321 11.3 4.9998 11.3H10.3101L8.50502 9.49493C8.23166 9.22157 8.23166 8.77835 8.50503 8.50498C8.77839 8.23162 9.22161 8.23162 9.49497 8.50498L12.0406 11.0506C12.4701 11.4801 12.4701 12.1766 12.0406 12.6062L9.49497 15.1518C9.22161 15.4252 8.77839 15.4252 8.50502 15.1518C8.23166 14.8784 8.23166 14.4352 8.50502 14.1618L9.96681 12.7H4.9998C4.61321 12.7 4.2998 12.3866 4.2998 12Z" fill="white"/>
</svg>
