<svg width="28" height="28" viewBox="0 0 28 28" fill="none" xmlns="http://www.w3.org/2000/svg">
<path fill-rule="evenodd" clip-rule="evenodd" d="M2 12.1175C2 11.9982 2.05273 11.8851 2.14393 11.8087L13.7439 2.09318C13.8923 1.96894 14.1077 1.96894 14.2561 2.09318L25.8561 11.8087C25.9473 11.8851 26 11.9982 26 12.1175V25.598C26 25.82 25.8209 26 25.6 26H2.4C2.17909 26 2 25.82 2 25.598V12.1175ZM14 3.71031L24.6 12.5883V24.5929H14.6998V18.9646C14.6998 18.576 14.3864 18.2611 13.9998 18.2611C13.6132 18.2611 13.2998 18.576 13.2998 18.9646V24.5929H3.4V12.5883L14 3.71031Z" fill="#151515"/>
</svg>
