<svg width="28" height="28" viewBox="0 0 28 28" fill="none" xmlns="http://www.w3.org/2000/svg">
<path fill-rule="evenodd" clip-rule="evenodd" d="M3 6.6C3 5.71634 3.71634 5 4.6 5H23.4C24.2837 5 25 5.71634 25 6.6V21.4C25 22.2837 24.2837 23 23.4 23H4.6C3.71634 23 3 22.2837 3 21.4V6.6ZM4.6 6.4H23.4C23.5105 6.4 23.6 6.48954 23.6 6.6V15.1249L18.768 10.2929C18.6118 10.1366 18.3585 10.1366 18.2023 10.2929L12.0709 16.4243L8.93949 13.2929C8.78328 13.1366 8.53001 13.1366 8.3738 13.2929L4.4 17.2667V6.6C4.4 6.48954 4.48954 6.4 4.6 6.4ZM4.4 19.2466V21.4C4.4 21.5105 4.48954 21.6 4.6 21.6H23.4C23.5105 21.6 23.6 21.5105 23.6 21.4V17.1048L18.4851 11.9899L13.0608 17.4142L14.5256 18.879C14.6818 19.0352 14.6818 19.2885 14.5256 19.4447L14.1014 19.8689C13.9452 20.0252 13.6919 20.0252 13.5357 19.8689L8.65665 14.9899L4.4 19.2466Z" fill="#151515"/>
</svg>
