<svg width="24" height="24" viewBox="0 0 24 24" fill="none" xmlns="http://www.w3.org/2000/svg">
<path fill-rule="evenodd" clip-rule="evenodd" d="M5.7 7H10.3C10.6866 7 11 7.3134 11 7.7C11 8.0866 10.6866 8.4 10.3 8.4H5.7C5.3134 8.4 5 8.0866 5 7.7C5 7.3134 5.3134 7 5.7 7ZM5.7 15H10.3C10.6866 15 11 15.3134 11 15.7C11 16.0866 10.6866 16.4 10.3 16.4H5.7C5.3134 16.4 5 16.0866 5 15.7C5 15.3134 5.3134 15 5.7 15ZM15.4 7.4V9.6H17.6V7.4H15.4ZM15.4 14.4V16.6H17.6V14.4H15.4ZM2.4 3C2.17909 3 2 3.17909 2 3.4V20.6C2 20.8209 2.17909 21 2.4 21H21.6C21.8209 21 22 20.8209 22 20.6V3.4C22 3.17909 21.8209 3 21.6 3H2.4ZM3.4 19.6H20.6V4.4H3.4V19.6ZM5 11.7C5 11.3134 5.3134 11 5.7 11H10.2992C10.6858 11 11 11.3134 11 11.7C11 12.0866 10.6866 12.4 10.3 12.4H5.7C5.3134 12.4 5 12.0866 5 11.7ZM14 6.4C14 6.17909 14.1791 6 14.4 6H18.6C18.8209 6 19 6.17909 19 6.4V10.6C19 10.8209 18.8209 11 18.6 11H14.4C14.1791 11 14 10.8209 14 10.6V6.4ZM14.4 13C14.1791 13 14 13.1791 14 13.4V17.6C14 17.8209 14.1791 18 14.4 18H18.6C18.8209 18 19 17.8209 19 17.6V13.4C19 13.1791 18.8209 13 18.6 13H14.4Z" fill="#151515"/>
</svg>
