<svg width="24" height="24" viewBox="0 0 24 24" fill="none" xmlns="http://www.w3.org/2000/svg">
<path fill-rule="evenodd" clip-rule="evenodd" d="M13.9139 7.43925C13.9139 9.89098 11.9377 11.8785 9.49998 11.8785C7.06226 11.8785 5.08609 9.89098 5.08609 7.43925C5.08609 4.98752 7.06226 3 9.49998 3C11.9377 3 13.9139 4.98752 13.9139 7.43925ZM12.678 7.43925C12.678 9.20449 11.2551 10.6355 9.49998 10.6355C7.74482 10.6355 6.32198 9.20449 6.32198 7.43925C6.32198 5.674 7.74482 4.24299 9.49998 4.24299C11.2551 4.24299 12.678 5.674 12.678 7.43925Z" fill="#757575"/>
<path fill-rule="evenodd" clip-rule="evenodd" d="M1.94044 15.9413C2.28444 14.2979 3.726 13.1215 5.39582 13.1215H13.6042C15.274 13.1215 16.7156 14.2979 17.0596 15.9413L17.9692 20.2868C18.154 21.1697 17.4842 22 16.587 22H2.41297C1.51582 22 0.845999 21.1697 1.03082 20.2868L1.94044 15.9413ZM5.39582 14.3645H13.6042C14.6896 14.3645 15.6266 15.1291 15.8502 16.1973L16.7598 20.5429C16.7829 20.6532 16.6992 20.757 16.587 20.757H2.41297C2.30083 20.757 2.2171 20.6532 2.2402 20.5429L3.14982 16.1973C3.37342 15.1291 4.31043 14.3645 5.39582 14.3645Z" fill="#757575"/>
<path fill-rule="evenodd" clip-rule="evenodd" d="M19.7616 7.47308V10.3115H21.1616V7.47308H24V6.07308H21.1616V3.23462H19.7616V6.07308H16.9231L16.9231 7.47308H19.7616Z" fill="#757575"/>
</svg>
