<svg width="24" height="24" viewBox="0 0 24 24" fill="none" xmlns="http://www.w3.org/2000/svg">
<path fill-rule="evenodd" clip-rule="evenodd" d="M17 6.30005C17 9.06147 14.7614 11.3 12 11.3C9.23858 11.3 7 9.06147 7 6.30005C7 3.53863 9.23858 1.30005 12 1.30005C14.7614 1.30005 17 3.53863 17 6.30005ZM15.6 6.30005C15.6 8.28827 13.9882 9.90005 12 9.90005C10.0118 9.90005 8.4 8.28827 8.4 6.30005C8.4 4.31182 10.0118 2.70005 12 2.70005C13.9882 2.70005 15.6 4.31182 15.6 6.30005Z" fill="#151515"/>
<path fill-rule="evenodd" clip-rule="evenodd" d="M3.43666 15.876C3.82634 14.0251 5.45931 12.7001 7.35086 12.7001H16.6492C18.5407 12.7001 20.1737 14.0251 20.5634 15.876L21.5938 20.7705C21.8031 21.7649 21.0444 22.7001 20.0281 22.7001H3.97193C2.95566 22.7001 2.19689 21.7649 2.40625 20.7705L3.43666 15.876ZM7.35086 14.1001H16.6492C17.8787 14.1001 18.9401 14.9613 19.1934 16.1644L20.2238 21.0589C20.25 21.1832 20.1551 21.3001 20.0281 21.3001H3.97193C3.8449 21.3001 3.75005 21.1832 3.77622 21.0589L4.80663 16.1644C5.05992 14.9613 6.12135 14.1001 7.35086 14.1001Z" fill="#151515"/>
</svg>
