<svg width="28" height="28" viewBox="0 0 28 28" fill="none" xmlns="http://www.w3.org/2000/svg">
<path d="M22.3307 8.53434C22.9775 9.9428 23.3109 11.5241 23.2463 13.1597C23.115 16.4807 23.2274 19.7708 23.9614 21.5496C24.0661 21.8033 23.93 22.1033 23.6599 22.1521C22.2908 22.3994 18.5022 23 13.9984 23C9.49447 23 5.70591 22.3994 4.33679 22.1521C4.06671 22.1033 3.93064 21.8033 4.03532 21.5496C4.7693 19.7708 4.88174 16.4807 4.75046 13.1597C4.53809 7.7868 8.62129 3 13.9984 3C14.0688 3 14.139 3.00082 14.2089 3.00245C14.0181 3.4399 13.888 3.90994 13.8293 4.40191C9.42598 4.50149 5.96668 8.48255 6.14937 13.1044C6.21613 14.7933 6.22227 16.5018 6.11386 18.0319C6.04075 19.0637 5.9123 20.0712 5.69137 20.9582C7.46257 21.2302 10.5126 21.6 13.9984 21.6C17.4841 21.6 20.5341 21.2302 22.3053 20.9582C22.0844 20.0712 21.956 19.0637 21.8829 18.0319C21.7744 16.5018 21.7806 14.7933 21.8473 13.1044C21.8993 11.7909 21.657 10.5292 21.1826 9.39361C21.6061 9.16289 21.9925 8.87273 22.3307 8.53434Z" fill="#151515"/>
<path d="M13.7939 27C15.4508 27 16.7939 25.6569 16.7939 24H10.7939C10.7939 25.6569 12.1371 27 13.7939 27Z" fill="#151515"/>
<circle cx="18.7939" cy="5" r="4" fill="#FFCCCC"/>
</svg>
