<svg width="28" height="28" viewBox="0 0 28 28" fill="none" xmlns="http://www.w3.org/2000/svg">
<path fill-rule="evenodd" clip-rule="evenodd" d="M21.8473 12.1044C21.7806 13.7933 21.7744 15.5018 21.8829 17.0319C21.956 18.0637 22.0844 19.0712 22.3053 19.9582C20.5341 20.2302 17.4841 20.6 13.9984 20.6C10.5126 20.6 7.46257 20.2302 5.69137 19.9582C5.9123 19.0712 6.04075 18.0637 6.11386 17.0319C6.22227 15.5018 6.21613 13.7933 6.14937 12.1044C5.96435 7.42358 9.51485 3.4 13.9984 3.4C18.4819 3.4 22.0324 7.42357 21.8473 12.1044ZM4.75046 12.1597C4.53809 6.7868 8.62129 2 13.9984 2C19.3754 2 23.4586 6.7868 23.2463 12.1597C23.115 15.4807 23.2274 18.7708 23.9614 20.5496C24.0661 20.8033 23.93 21.1033 23.6599 21.1521C22.2908 21.3994 18.5022 22 13.9984 22C9.49447 22 5.70591 21.3994 4.33679 21.1521C4.06671 21.1033 3.93064 20.8033 4.03532 20.5496C4.7693 18.7708 4.88174 15.4807 4.75046 12.1597ZM16.9986 23C16.9986 24.6569 15.6554 26 13.9986 26C12.3417 26 10.9986 24.6569 10.9986 23H16.9986Z" fill="#151515"/>
</svg>
