<svg width="38" height="38" viewBox="0 0 38 38" fill="none" xmlns="http://www.w3.org/2000/svg">
<path fill-rule="evenodd" clip-rule="evenodd" d="M21.3968 11.832L25.6131 16.0484L13.3272 28.3343C13.1461 28.5154 12.9117 28.6338 12.6585 28.6722L9.48967 28.9619C8.95675 29.0426 8.49811 28.584 8.57885 28.0511L8.77297 24.7867C8.81135 24.5334 8.92976 24.2991 9.1109 24.1179L21.3968 11.832ZM21.3968 13.8119L10.1473 25.0614L10.085 27.4557L12.3838 27.2978L23.6332 16.0484L21.3968 13.8119Z" fill="#B7B7B7"/>
<path d="M26.5193 15.1425L22.303 10.9261L24 9.22908C24.3906 8.83855 25.0237 8.83856 25.4142 9.22908L28.2164 12.0312C28.6069 12.4217 28.6069 13.0549 28.2164 13.4454L26.5193 15.1425Z" fill="#B7B7B7"/>
</svg>
