<svg width="20" height="20" viewBox="0 0 20 20" fill="none" xmlns="http://www.w3.org/2000/svg">
<path fill-rule="evenodd" clip-rule="evenodd" d="M10 15.6C13.0928 15.6 15.6 13.0928 15.6 10C15.6 6.90721 13.0928 4.4 10 4.4C6.90721 4.4 4.4 6.90721 4.4 10C4.4 13.0928 6.90721 15.6 10 15.6ZM10 17C13.866 17 17 13.866 17 10C17 6.13401 13.866 3 10 3C6.13401 3 3 6.13401 3 10C3 13.866 6.13401 17 10 17ZM6.3 10C6.3 9.6134 6.6134 9.3 7 9.3H9.2998V6.99995C9.2998 6.61335 9.61321 6.29995 9.9998 6.29995C10.3864 6.29995 10.6998 6.61335 10.6998 6.99995V9.3H13C13.3866 9.3 13.7 9.6134 13.7 10C13.7 10.3866 13.3866 10.7 13 10.7H10.6998V13C10.6998 13.3866 10.3864 13.7 9.9998 13.7C9.61321 13.7 9.2998 13.3866 9.2998 13V10.7H7C6.6134 10.7 6.3 10.3866 6.3 10Z" fill="#757575"/>
</svg>
