<svg width="24" height="24" viewBox="0 0 24 24" fill="none" xmlns="http://www.w3.org/2000/svg">
<path fill-rule="evenodd" clip-rule="evenodd" d="M12.6857 4.68571C12.6857 4.307 12.3787 4 12 4C11.6213 4 11.3143 4.307 11.3143 4.68571V11.3143H4.68571C4.307 11.3143 4 11.6213 4 12C4 12.3787 4.307 12.6857 4.68571 12.6857H11.3143V19.3143C11.3143 19.693 11.6213 20 12 20C12.3787 20 12.6857 19.693 12.6857 19.3143V12.6857H19.3143C19.693 12.6857 20 12.3787 20 12C20 11.6213 19.693 11.3143 19.3143 11.3143H12.6857V4.68571Z" fill="white"/>
</svg>
