<svg width="24" height="24" viewBox="0 0 24 24" fill="none" xmlns="http://www.w3.org/2000/svg">
<path fill-rule="evenodd" clip-rule="evenodd" d="M18.8528 11.1371C18.8528 15.3983 15.3983 18.8528 11.1371 18.8528C6.87577 18.8528 3.42132 15.3983 3.42132 11.1371C3.42132 6.87577 6.87577 3.42132 11.1371 3.42132C15.3983 3.42132 18.8528 6.87577 18.8528 11.1371ZM17.076 18.081C15.4788 19.4483 13.4044 20.2741 11.1371 20.2741C6.0908 20.2741 2 16.1833 2 11.1371C2 6.0908 6.0908 2 11.1371 2C16.1833 2 20.2741 6.0908 20.2741 11.1371C20.2741 13.4044 19.4483 15.4788 18.081 17.076L21.7919 20.7868C22.0694 21.0644 22.0694 21.5143 21.7919 21.7919C21.5143 22.0694 21.0644 22.0694 20.7868 21.7919L17.076 18.081Z" fill="#151515"/>
</svg>
