<svg width="20" height="20" viewBox="0 0 20 20" fill="none" xmlns="http://www.w3.org/2000/svg">
<path d="M17.4731 10.536C17.5091 10.236 17.5331 9.924 17.5331 9.6C17.5331 9.276 17.5091 8.964 17.4611 8.664L19.4891 7.08C19.6691 6.936 19.7171 6.672 19.6091 6.468L17.6891 3.144C17.5691 2.928 17.3171 2.856 17.1011 2.928L14.7131 3.888C14.2091 3.504 13.6811 3.192 13.0931 2.952L12.7331 0.408C12.6971 0.168 12.4931 0 12.2531 0H8.41311C8.17311 0 7.98111 0.168 7.94512 0.408L7.58511 2.952C6.99712 3.192 6.45712 3.516 5.96512 3.888L3.57711 2.928C3.36111 2.844 3.10911 2.928 2.98911 3.144L1.06911 6.468C0.949114 6.684 0.997115 6.936 1.18911 7.08L3.21711 8.664C3.16911 8.964 3.13311 9.288 3.13311 9.6C3.13311 9.912 3.15711 10.236 3.20511 10.536L1.17711 12.12C0.997114 12.264 0.949114 12.528 1.05711 12.732L2.97711 16.056C3.09711 16.272 3.34911 16.344 3.56511 16.272L5.95311 15.312C6.45711 15.696 6.98512 16.008 7.57311 16.248L7.93312 18.792C7.98111 19.032 8.17311 19.2 8.41311 19.2H12.2531C12.4931 19.2 12.6971 19.032 12.7211 18.792L13.0811 16.248C13.6691 16.008 14.2091 15.684 14.7011 15.312L17.0891 16.272C17.3051 16.356 17.5571 16.272 17.6771 16.056L19.5971 12.732C19.7171 12.516 19.6691 12.264 19.4771 12.12L17.4731 10.536ZM10.3331 13.2C8.35311 13.2 6.73311 11.58 6.73311 9.6C6.73311 7.62 8.35311 6 10.3331 6C12.3131 6 13.9331 7.62 13.9331 9.6C13.9331 11.58 12.3131 13.2 10.3331 13.2Z" fill="#B7B7B7"/>
</svg>
