<svg width="20" height="20" viewBox="0 0 20 20" fill="none" xmlns="http://www.w3.org/2000/svg">
<path fill-rule="evenodd" clip-rule="evenodd" d="M16.4 10C16.4 13.5346 13.5346 16.4 10 16.4C6.46538 16.4 3.6 13.5346 3.6 10C3.6 6.46538 6.46538 3.6 10 3.6C13.5346 3.6 16.4 6.46538 16.4 10ZM18 10C18 14.4183 14.4183 18 10 18C5.58172 18 2 14.4183 2 10C2 5.58172 5.58172 2 10 2C14.4183 2 18 5.58172 18 10ZM10 13.2C8.23269 13.2 6.8 11.7673 6.8 10H5.2C5.2 12.651 7.34903 14.8 10 14.8C12.651 14.8 14.8 12.651 14.8 10H13.2C13.2 11.7673 11.7673 13.2 10 13.2ZM8.1998 7.50005C8.1998 8.16279 7.66255 8.70005 6.9998 8.70005C6.33706 8.70005 5.7998 8.16279 5.7998 7.50005C5.7998 6.83731 6.33706 6.30005 6.9998 6.30005C7.66255 6.30005 8.1998 6.83731 8.1998 7.50005ZM12.9998 8.70005C13.6625 8.70005 14.1998 8.16279 14.1998 7.50005C14.1998 6.83731 13.6625 6.30005 12.9998 6.30005C12.3371 6.30005 11.7998 6.83731 11.7998 7.50005C11.7998 8.16279 12.3371 8.70005 12.9998 8.70005Z" fill="#757575"/>
</svg>
