<svg width="24" height="24" viewBox="0 0 24 24" fill="none" xmlns="http://www.w3.org/2000/svg">
<path d="M11.6414 3.21052C11.7881 2.92983 12.2119 2.92983 12.3586 3.21052L15.139 8.53076C15.1972 8.64222 15.3098 8.71948 15.4401 8.73735L21.6572 9.59049C21.9852 9.6355 22.1161 10.0162 21.8788 10.2347L17.3801 14.3759C17.2858 14.4626 17.2428 14.5876 17.2651 14.7102L18.3271 20.5577C18.3831 20.8662 18.0402 21.1014 17.7468 20.9558L12.1861 18.195C12.0696 18.1371 11.9304 18.1371 11.8139 18.195L6.25317 20.9558C5.9598 21.1014 5.61691 20.8662 5.67294 20.5577L6.73494 14.7102C6.75719 14.5876 6.71418 14.4626 6.61993 14.3759L2.1212 10.2347C1.88385 10.0162 2.01483 9.6355 2.34283 9.59049L8.55993 8.73735C8.69018 8.71948 8.80278 8.64222 8.86103 8.53076L11.6414 3.21052Z" fill="#FF7776"/>
</svg>
