<?xml version="1.0" standalone="no"?>
<!DOCTYPE svg PUBLIC "-//W3C//DTD SVG 20010904//EN"
 "http://www.w3.org/TR/2001/REC-SVG-20010904/DTD/svg10.dtd">
<svg version="1.0" xmlns="http://www.w3.org/2000/svg"
 width="96.000000pt" height="96.000000pt" viewBox="0 0 96.000000 96.000000"
 preserveAspectRatio="xMidYMid meet">
<metadata>
Created by potrace 1.14, written by Peter Selinger 2001-2017
</metadata>
<g transform="translate(0.000000,96.000000) scale(0.100000,-0.100000)"
fill="#000000" stroke="none">
<path d="M211 798 c-79 -29 -60 -138 24 -138 24 0 39 7 54 26 26 33 26 54 1
86 -23 30 -47 38 -79 26z"/>
<path d="M460 802 c-26 -8 -60 -45 -60 -64 0 -22 18 -60 34 -70 26 -18 75 -8
95 18 26 33 26 54 1 86 -21 27 -46 38 -70 30z"/>
<path d="M100 526 c25 -23 51 -45 59 -47 10 -4 10 -16 0 -65 -10 -50 -10 -70
1 -110 17 -58 79 -126 135 -144 60 -20 139 -8 190 28 39 28 45 29 57 15 22
-27 90 -53 139 -53 63 0 139 40 175 92 41 58 46 154 12 218 -59 110 -220 148
-309 73 -25 -22 -34 -24 -48 -15 -69 49 -82 52 -273 52 l-183 0 45 -44z m305
-70 c37 -16 65 -60 65 -102 0 -41 -59 -94 -104 -94 -69 0 -115 55 -102 123 7
37 27 60 66 76 34 13 36 13 75 -3z m344 -19 c34 -32 44 -64 31 -103 -16 -46
-54 -74 -102 -74 -110 0 -136 151 -34 196 37 17 73 10 105 -19z"/>
</g>
</svg>
