<svg width="72" height="55" viewBox="0 0 72 55" fill="none" xmlns="http://www.w3.org/2000/svg">
<path d="M53.25 18.26C50.6869 18.2627 48.154 18.8128 45.8207 19.8734C43.4873 20.934 41.4074 22.4807 39.72 24.41C38.0327 22.4807 35.9527 20.934 33.6194 19.8734C31.286 18.8128 28.7531 18.2627 26.19 18.26H1.6C0.716345 18.26 0 18.9764 0 19.86V25.66C0 26.5437 0.716344 27.26 1.6 27.26H10.61C8.3581 31.1289 7.62861 35.6981 8.56396 40.0759C9.49931 44.4537 12.0324 48.3258 15.6688 50.9366C19.3052 53.5475 23.7839 54.7096 28.231 54.1962C32.678 53.6828 36.7742 51.5307 39.72 48.16C41.7081 50.4162 44.2297 52.1384 47.0546 53.1693C49.8795 54.2001 52.9177 54.5069 55.8916 54.0614C58.8655 53.616 61.6805 52.4325 64.0794 50.6192C66.4783 48.8059 68.3846 46.4204 69.6243 43.6807C70.8641 40.9411 71.3977 37.9344 71.1764 34.9355C70.9551 31.9365 69.986 29.0408 68.3576 26.5127C66.7292 23.9846 64.4934 21.9048 61.8544 20.4632C59.2153 19.0216 56.2571 18.2642 53.25 18.26ZM26.19 45.31C24.41 45.31 22.6699 44.7822 21.1899 43.7932C19.7098 42.8043 18.5563 41.3987 17.8751 39.7542C17.1939 38.1096 17.0157 36.3 17.363 34.5542C17.7102 32.8084 18.5674 31.2047 19.826 29.9461C21.0847 28.6874 22.6884 27.8302 24.4342 27.4829C26.18 27.1357 27.9896 27.3139 29.6342 27.9951C31.2787 28.6763 32.6843 29.8298 33.6732 31.3099C34.6622 32.7899 35.19 34.53 35.19 36.31C35.19 38.697 34.2418 40.9861 32.554 42.674C30.8661 44.3618 28.577 45.31 26.19 45.31ZM53.25 45.31C51.47 45.31 49.7299 44.7822 48.2499 43.7932C46.7698 42.8043 45.6163 41.3987 44.9351 39.7542C44.2539 38.1096 44.0757 36.3 44.423 34.5542C44.7702 32.8084 45.6274 31.2047 46.886 29.9461C48.1447 28.6874 49.7484 27.8302 51.4942 27.4829C53.24 27.1357 55.0496 27.3139 56.6942 27.9951C58.3387 28.6763 59.7443 29.8298 60.7332 31.3099C61.7221 32.7899 62.25 34.53 62.25 36.31C62.25 38.697 61.3018 40.9861 59.614 42.674C57.9261 44.3618 55.6369 45.31 53.25 45.31Z" fill="#4D6C56"/>
<path d="M35.47 11.28C36.5859 11.28 37.6767 10.949 38.6044 10.3288C39.5321 9.70862 40.255 8.82718 40.6816 7.79602C41.1082 6.76486 41.2193 5.63033 41.0009 4.53601C40.7824 3.44168 40.2442 2.43675 39.4545 1.64838C38.6647 0.860014 37.6589 0.323647 36.5642 0.107157C35.4694 -0.109333 34.3351 0.00378433 33.3047 0.432196C32.2743 0.860608 31.3941 1.58506 30.7756 2.51387C30.1571 3.44267 29.828 4.53409 29.83 5.65C29.83 6.39019 29.9759 7.12311 30.2595 7.80682C30.543 8.49054 30.9586 9.11163 31.4825 9.63455C32.0063 10.1575 32.6282 10.572 33.3124 10.8543C33.9966 11.1367 34.7298 11.2813 35.47 11.28Z" fill="#4D6C56"/>
<path d="M16.9101 11.2799C18.0285 11.2918 19.1252 10.9709 20.0607 10.358C20.9963 9.74513 21.7285 8.86791 22.1643 7.83785C22.6001 6.8078 22.7198 5.67142 22.5082 4.57317C22.2966 3.47492 21.7632 2.46438 20.9759 1.66999C20.1886 0.875604 19.1828 0.333248 18.0865 0.11185C16.9902 -0.109547 15.8528 1.28448e-05 14.8189 0.426609C13.785 0.853204 12.9013 1.57757 12.28 2.50764C11.6588 3.4377 11.3282 4.53148 11.3301 5.64993C11.3326 7.13368 11.9198 8.55666 12.9642 9.6105C14.0087 10.6643 15.4264 11.2641 16.9101 11.2799Z" fill="#4D6C56"/>
</svg>
