<svg width="115" height="27" viewBox="0 0 115 27" fill="none" xmlns="http://www.w3.org/2000/svg">
<path d="M14.2968 4.16427C14.2968 4.46184 14.2185 4.75354 14.0706 5.0066C13.9905 5.12525 13.8833 5.22038 13.759 5.28308C13.6346 5.34578 13.4972 5.37397 13.3597 5.36501H0.947496C0.809747 5.37632 0.671612 5.34919 0.546872 5.28629C0.422131 5.2234 0.315143 5.12695 0.236607 5.0066C0.0822103 4.75609 0 4.4634 0 4.16427C0 3.86514 0.0822103 3.57249 0.236607 3.32198C0.315143 3.20163 0.422131 3.10518 0.546872 3.04229C0.671612 2.97939 0.809747 2.95226 0.947496 2.96357H5.93498V1.20727C5.92169 1.02855 5.95331 0.849277 6.02664 0.687695C6.09997 0.526113 6.21239 0.387959 6.35247 0.287278C6.63476 0.0995636 6.96133 0 7.29467 0C7.62801 0 7.95457 0.0995636 8.23686 0.287278C8.37404 0.39022 8.48363 0.529156 8.55484 0.690429C8.62605 0.851703 8.65646 1.0298 8.6431 1.20727V2.96357H13.3484C13.4878 2.95252 13.6275 2.97968 13.754 3.04247C13.8805 3.10526 13.9895 3.20153 14.0706 3.32198C14.2185 3.57504 14.2968 3.8667 14.2968 4.16427Z" fill="white"/>
<path d="M18.9793 0.574486C18.6506 0.568753 18.3279 0.668724 18.054 0.861217C17.9186 0.960374 17.81 1.09514 17.7388 1.25226C17.6676 1.40938 17.6362 1.58344 17.6478 1.75729V6.71554H14.7817C14.6466 6.70265 14.5106 6.72793 14.3877 6.78879C14.2648 6.84966 14.1594 6.94394 14.0821 7.06203C13.9414 7.31065 13.8709 7.59673 13.879 7.88642C13.871 8.18367 13.9413 8.47739 14.0821 8.73469C14.1572 8.8559 14.2619 8.95327 14.3851 9.01639C14.5083 9.07952 14.6454 9.10601 14.7817 9.09311H17.6478V11.2795H14.9171C14.783 11.2653 14.6478 11.2888 14.525 11.3475C14.4021 11.4062 14.2961 11.4982 14.2175 11.6141C14.0782 11.8677 14.0079 12.1571 14.0144 12.4504C14.0076 12.7475 14.0778 13.0409 14.2175 13.2987C14.2926 13.4199 14.3973 13.5172 14.5205 13.5804C14.6437 13.6435 14.7808 13.67 14.9171 13.6571H17.6478V14.8519C17.6371 15.0239 17.6689 15.1959 17.7401 15.351C17.8114 15.506 17.9196 15.6388 18.054 15.736C18.328 15.9237 18.6473 16.0236 18.9736 16.0236C19.3 16.0236 19.6193 15.9237 19.8933 15.736C20.0277 15.6388 20.1359 15.506 20.2072 15.351C20.2784 15.1959 20.3102 15.0239 20.2995 14.8519V1.75729C20.3111 1.58344 20.2797 1.40938 20.2085 1.25226C20.1373 1.09514 20.0287 0.960374 19.8933 0.861217C19.6229 0.670355 19.3043 0.570423 18.9793 0.574486Z" fill="white"/>
<path fill-rule="evenodd" clip-rule="evenodd" d="M11.4192 14.516C11.8993 14.1389 12.2858 13.644 12.5453 13.0737C12.8047 12.5035 12.9294 11.875 12.9087 11.2424C12.9306 10.613 12.8062 9.98753 12.5465 9.4209C12.2868 8.85428 11.8997 8.36385 11.4192 7.99265C10.1643 7.20986 8.73446 6.79701 7.27802 6.79701C5.82158 6.79701 4.39169 7.20986 3.13683 7.99265C2.65495 8.36326 2.26618 8.85328 2.00456 9.41981C1.74293 9.98634 1.61643 10.6121 1.6361 11.2424C1.61759 11.8759 1.74445 12.5047 2.00583 13.0748C2.26722 13.645 2.65531 14.1395 3.13683 14.516C4.38928 15.3062 5.82012 15.7233 7.27802 15.7233C8.73593 15.7233 10.1667 15.3062 11.4192 14.516ZM4.08467 11.2424C4.07756 10.9249 4.14623 10.6106 4.2843 10.3287C4.42237 10.0467 4.62539 9.80626 4.87456 9.62946C5.61499 9.22111 6.43752 9.00791 7.27238 9.00791C8.10723 9.00791 8.92976 9.22111 9.6702 9.62946C9.92071 9.80567 10.1254 10.0457 10.2653 10.3275C10.4053 10.6094 10.4762 10.924 10.4713 11.2424C10.475 11.5622 10.4037 11.8781 10.2639 12.1616C10.1241 12.4452 9.92014 12.6876 9.6702 12.8673C8.92756 13.268 8.10589 13.4769 7.27238 13.4769C6.43887 13.4769 5.61719 13.268 4.87456 12.8673C4.62597 12.687 4.42363 12.4441 4.28574 12.1605C4.14786 11.8768 4.07875 11.5613 4.08467 11.2424Z" fill="white"/>
<path fill-rule="evenodd" clip-rule="evenodd" d="M18.9791 17.0617C18.6637 17.0642 18.3551 17.1593 18.0877 17.3365C17.953 17.4257 17.8433 17.5514 17.7699 17.7005C17.6965 17.8497 17.6621 18.0169 17.6702 18.1848V20.1084H6.97306V18.1848C6.98352 18.0178 6.95132 17.8509 6.87984 17.7017C6.80836 17.5524 6.70026 17.4263 6.56686 17.3365C6.30052 17.1568 5.99125 17.0613 5.67542 17.0613C5.3596 17.0613 5.05033 17.1568 4.78399 17.3365C4.65058 17.4263 4.54248 17.5524 4.471 17.7017C4.39953 17.8509 4.36732 18.0178 4.37779 18.1848V24.7202C4.31137 25.3265 4.47355 25.9362 4.82913 26.4167C5.3032 26.776 5.88574 26.9376 6.46531 26.8707H18.2118C18.7947 26.935 19.3799 26.7738 19.8592 26.4167C20.2044 25.931 20.3617 25.3244 20.2993 24.7202V18.1848C20.3098 18.0178 20.2776 17.8509 20.2061 17.7017C20.1346 17.5524 20.0265 17.4263 19.8931 17.3365C19.6195 17.1544 19.3023 17.0591 18.9791 17.0617ZM17.6702 24.1467C17.6776 24.205 17.6722 24.2644 17.6545 24.3202C17.6367 24.376 17.607 24.4266 17.5677 24.4682C17.5283 24.5099 17.4805 24.5413 17.4278 24.5602C17.3751 24.579 17.319 24.5847 17.2639 24.5768H7.41315C7.11977 24.5768 6.97306 24.4334 6.97306 24.1467V22.3665H17.6702V24.1467Z" fill="white"/>
<path fill-rule="evenodd" clip-rule="evenodd" d="M38.5563 16.2974C38.8197 16.1098 39.1301 16.0099 39.4477 16.0107C39.7837 16.0031 40.114 16.103 40.3955 16.2974C40.5308 16.3938 40.6396 16.5264 40.711 16.6816C40.7823 16.8369 40.8136 17.0093 40.8017 17.1815V24.7205C40.8642 25.3247 40.7068 25.9313 40.3616 26.417C39.8858 26.7723 39.3047 26.9335 38.7255 26.871H26.9677C26.3883 26.9357 25.8065 26.7743 25.3316 26.417C24.976 25.9365 24.8138 25.3269 24.8802 24.7205V17.1815C24.8683 17.0093 24.8997 16.8369 24.971 16.6816C25.0423 16.5264 25.1511 16.3938 25.2864 16.2974C25.5499 16.1098 25.8604 16.0099 26.1779 16.0107C26.5099 16.0062 26.8358 16.106 27.1144 16.2974C27.2526 16.3914 27.3644 16.5232 27.4378 16.6788C27.5113 16.8344 27.5438 17.008 27.5319 17.1815V19.5711H38.15V17.1815C38.1381 17.0093 38.1695 16.8369 38.2408 16.6816C38.3121 16.5264 38.421 16.3938 38.5563 16.2974ZM38.1304 24.1622C38.1547 24.0842 38.1614 24.0012 38.15 23.92V21.8889H27.5319V23.92C27.5197 24.0823 27.5639 24.2437 27.656 24.374C27.7182 24.429 27.7902 24.4701 27.8678 24.4948C27.9454 24.5194 28.0269 24.5271 28.1074 24.5174H37.5858C37.6626 24.5295 37.7409 24.5224 37.8145 24.4966C37.8882 24.4709 37.9552 24.4272 38.01 24.3691C38.0649 24.3111 38.1061 24.2402 38.1304 24.1622Z" fill="white"/>
<path fill-rule="evenodd" clip-rule="evenodd" d="M39.4819 0.574654C39.1459 0.567074 38.8156 0.666998 38.5341 0.861385C38.3969 0.964327 38.2873 1.10323 38.2161 1.2645C38.1449 1.42577 38.1145 1.60387 38.1279 1.78134V6.56038H33.3773C33.3092 6.15342 33.2072 5.75361 33.0727 5.36562C32.8362 4.62953 32.4512 3.95682 31.9443 3.39427C31.3932 2.81762 30.7312 2.37345 30.0035 2.09199C28.2327 1.45474 26.3128 1.45474 24.5421 2.09199C23.8143 2.37345 23.1523 2.81762 22.6013 3.39427C22.0944 3.95682 21.7093 4.62953 21.4729 5.36562C21.2058 6.15097 21.072 6.98021 21.0779 7.81491C21.0713 8.65746 21.205 9.49463 21.4729 10.288C21.7093 11.0241 22.0944 11.6969 22.6013 12.2594C23.1523 12.8361 23.8143 13.2802 24.5421 13.5617C26.3128 14.199 28.2327 14.199 30.0035 13.5617C30.7312 13.2802 31.3932 12.8361 31.9443 12.2594C32.4512 11.6969 32.8362 11.0241 33.0727 10.288C33.2072 9.90004 33.3092 9.50024 33.3773 9.09327H38.1279V13.6573C38.1142 13.8331 38.1446 14.0096 38.2159 14.169C38.2872 14.3284 38.397 14.4651 38.5341 14.5653C38.8156 14.7597 39.1459 14.8596 39.4819 14.852C39.8069 14.8561 40.1254 14.7562 40.3959 14.5653C40.533 14.4651 40.6428 14.3284 40.7141 14.169C40.7854 14.0096 40.8157 13.8331 40.8021 13.6573V1.86498C40.8155 1.68751 40.7851 1.50942 40.7139 1.34814C40.6427 1.18687 40.5331 1.04797 40.3959 0.945027C40.1348 0.724362 39.8154 0.594953 39.4819 0.574654ZM30.7144 9.2964C30.5839 9.73912 30.3645 10.1467 30.0712 10.4912C29.7636 10.8615 29.3767 11.1483 28.9428 11.3275C27.8475 11.7365 26.6529 11.7365 25.5576 11.3275C25.1237 11.1483 24.7368 10.8615 24.4292 10.4912C24.1359 10.1467 23.9165 9.73912 23.786 9.2964C23.6476 8.82457 23.5791 8.33285 23.5829 7.83879C23.5808 7.34093 23.6492 6.84553 23.786 6.36922C23.9215 5.92879 24.1403 5.52225 24.4292 5.17446C24.7405 4.8115 25.1267 4.5294 25.5576 4.35007C26.6529 3.94105 27.8475 3.94105 28.9428 4.35007C29.3737 4.5294 29.7599 4.8115 30.0712 5.17446C30.3601 5.52225 30.5789 5.92879 30.7144 6.36922C30.8512 6.84553 30.9196 7.34093 30.9175 7.83879C30.9213 8.33285 30.8528 8.82457 30.7144 9.2964Z" fill="white"/>
<path d="M52.0063 18.2206C52.7172 18.1967 53.4281 18.1489 54.1277 18.0891C54.2522 18.0659 54.3801 18.0755 54.5002 18.1172C54.6202 18.1589 54.7287 18.2313 54.816 18.3281C54.989 18.565 55.0877 18.8533 55.0981 19.1525C55.1271 19.4524 55.0638 19.7541 54.9176 20.0127C54.8514 20.1341 54.7559 20.2346 54.6409 20.3039C54.5258 20.3732 54.3954 20.4088 54.2631 20.407C53.1575 20.495 51.9234 20.5506 50.5606 20.612C50.0736 20.6339 49.5698 20.6566 49.05 20.6818C47.0756 20.7774 45.0336 20.7774 42.9352 20.7774H42.9341C42.7952 20.7886 42.6559 20.7602 42.5309 20.6951C42.4058 20.63 42.2996 20.5304 42.2233 20.407C42.0676 20.151 41.9889 19.8511 41.9976 19.5468C41.9861 19.2533 42.0653 18.9639 42.2233 18.7224C42.3031 18.6042 42.4107 18.5101 42.5353 18.4494C42.66 18.3886 42.7974 18.3633 42.9341 18.3759H47.222V13.4774H45.1006C44.5214 13.5399 43.9403 13.3786 43.4645 13.0234C43.1193 12.5377 42.962 11.931 43.0244 11.3268V5.22158C42.962 4.61738 43.1193 4.01072 43.4645 3.52504C43.9403 3.16979 44.5214 3.00855 45.1006 3.07102H52.8413C52.9838 3.05661 53.1273 3.08345 53.2565 3.14869C53.3857 3.21392 53.4957 3.31509 53.5748 3.4414C53.7168 3.70306 53.7907 3.99987 53.7892 4.30163C53.792 4.59978 53.7179 4.89309 53.5748 5.1499C53.4927 5.27218 53.3818 5.3696 53.2531 5.43247C53.1244 5.49535 52.9825 5.52148 52.8413 5.50831H46.229C46.0773 5.4941 45.9257 5.53636 45.8002 5.62779C45.6975 5.76205 45.6489 5.93374 45.6648 6.10569V10.4666C45.6534 10.5478 45.6601 10.6308 45.6844 10.7088C45.7087 10.7868 45.75 10.8576 45.8048 10.9157C45.8597 10.9738 45.9266 11.0175 46.0003 11.0432C46.074 11.0689 46.1523 11.0761 46.229 11.064H53.1573C53.2985 11.0508 53.4404 11.0769 53.5691 11.1398C53.6977 11.2027 53.8086 11.3001 53.8908 11.4224C54.0314 11.6803 54.1054 11.9729 54.1054 12.2707C54.1054 12.5685 54.0314 12.8611 53.8908 13.119C53.8086 13.2413 53.6977 13.3387 53.5691 13.4015C53.4404 13.4644 53.2985 13.4906 53.1573 13.4774H49.8511V18.3162L52.0063 18.2206Z" fill="white"/>
<path d="M62.5907 0.932135C62.2847 0.925985 61.9846 1.02215 61.7331 1.20694C61.6036 1.29715 61.4988 1.42199 61.4295 1.56886C61.3601 1.71572 61.3286 1.87937 61.3382 2.04325V10.5978H58.7091V2.33002C58.7211 2.1658 58.6907 2.0012 58.6211 1.85387C58.5515 1.70655 58.4454 1.58204 58.3141 1.49367C58.055 1.30703 57.7473 1.21092 57.434 1.21887C57.1317 1.21442 56.8357 1.31055 56.5877 1.49367C56.4581 1.58388 56.3534 1.70872 56.284 1.85559C56.2147 2.00245 56.1832 2.16614 56.1928 2.33002V23.3817C56.1823 23.5474 56.2133 23.713 56.2827 23.862C56.352 24.0109 56.4572 24.1379 56.5877 24.23C56.8379 24.4083 57.1324 24.5039 57.434 24.5048C57.7466 24.5074 58.0529 24.4118 58.3141 24.23C58.4463 24.1397 58.5529 24.0131 58.6224 23.8637C58.692 23.7143 58.7219 23.5477 58.7091 23.3817V13.0351H61.3382V24.5884C61.3289 24.7539 61.3604 24.9192 61.4297 25.0679C61.4989 25.2166 61.6035 25.3437 61.7331 25.4367C61.9878 25.613 62.2865 25.7046 62.5907 25.6996C62.8985 25.7048 63.2009 25.6133 63.4596 25.4367C63.5909 25.3455 63.6968 25.2187 63.7662 25.0695C63.8357 24.9204 63.8662 24.7542 63.8545 24.5884V2.03133C63.8665 1.86711 63.8361 1.70251 63.7665 1.55518C63.697 1.40786 63.5909 1.28335 63.4596 1.19498C63.2026 1.01422 62.8991 0.922372 62.5907 0.932135Z" fill="white"/>
<path d="M82.4274 1.54214C82.7019 1.35101 83.0241 1.25113 83.3527 1.25538C83.6955 1.2495 84.0326 1.34914 84.3231 1.54214C84.4615 1.64452 84.5727 1.78297 84.6458 1.94413C84.7189 2.10529 84.7516 2.28368 84.7406 2.4621V24.828C84.7516 25.0064 84.7189 25.1848 84.6458 25.346C84.5727 25.5072 84.4615 25.6456 84.3231 25.748C84.0326 25.941 83.6955 26.0406 83.3527 26.0348C83.0241 26.039 82.7019 25.9391 82.4274 25.748C82.2852 25.6487 82.1706 25.5112 82.0952 25.3496C82.0198 25.1879 81.9865 25.0079 81.9986 24.828V2.4621C81.9865 2.28226 82.0198 2.10224 82.0952 1.94056C82.1706 1.77888 82.2852 1.64138 82.4274 1.54214Z" fill="white"/>
<path d="M76.7422 14.9857C76.4279 14.6544 76.1105 14.3199 75.8036 14.0148C75.4407 13.6441 75.105 13.2447 74.7993 12.82C74.5382 12.4286 74.3187 12.0079 74.1449 11.5655C73.9819 11.1189 73.8683 10.6538 73.8064 10.1795C73.7446 9.61641 73.7145 9.04992 73.7161 8.483V5.71115H78.1619C78.3009 5.72243 78.4401 5.694 78.5652 5.62886C78.6902 5.56371 78.7965 5.46423 78.8728 5.34078C79.0275 5.08374 79.1096 4.78531 79.1096 4.48055C79.1096 4.17578 79.0275 3.87735 78.8728 3.62032C78.7965 3.49687 78.6902 3.39739 78.5652 3.33224C78.4401 3.26709 78.3009 3.23867 78.1619 3.24994H66.3816C66.2374 3.23461 66.092 3.26096 65.9609 3.32618C65.8297 3.39141 65.7178 3.49305 65.6369 3.62032C65.4822 3.87735 65.4 4.17578 65.4 4.48055C65.4 4.78531 65.4822 5.08374 65.6369 5.34078C65.7178 5.46805 65.8297 5.56969 65.9609 5.63491C66.092 5.70013 66.2374 5.72649 66.3816 5.71115H70.9515V8.45909C70.9532 9.026 70.923 9.59253 70.8613 10.1557C70.7993 10.6299 70.6858 11.095 70.5228 11.5416C70.3489 11.984 70.1295 12.4047 69.8683 12.7961C69.5659 13.2236 69.2299 13.6232 68.864 13.9908L68.8626 13.9923L68.861 13.994C68.2866 14.6022 67.7346 15.1866 67.1602 15.7711C67.032 15.9014 66.9049 16.033 66.7776 16.1648C66.3334 16.6249 65.886 17.0883 65.3773 17.5154C65.2524 17.6186 65.1517 17.7511 65.0832 17.9024C65.0147 18.0537 64.9802 18.2198 64.9824 18.3875C64.9924 18.7226 65.1121 19.0436 65.3209 19.2956C65.5284 19.5483 65.804 19.7277 66.1108 19.8093C66.2705 19.8557 66.439 19.857 66.5994 19.813C66.7597 19.7689 66.9064 19.6812 67.0248 19.5584C67.5965 19.0248 68.1494 18.4871 68.6835 17.9455L70.2745 16.2848C70.6694 15.8666 70.9967 15.4962 71.2562 15.1976C71.4678 14.9444 71.6639 14.677 71.843 14.397C71.9697 14.2052 72.0793 14.0012 72.1702 13.7877C72.2415 13.6224 72.2982 13.4504 72.3395 13.274C72.3667 13.4422 72.4121 13.6066 72.4749 13.7638C72.5664 13.9757 72.6799 14.176 72.8134 14.3612C72.9714 14.5842 73.1745 14.8471 73.4227 15.1498C73.671 15.4524 73.9869 15.8108 74.3706 16.225L75.9277 17.8141C76.4017 18.3039 76.8417 18.746 77.2367 19.1283C77.3548 19.2374 77.493 19.3192 77.6426 19.3685C77.7922 19.4179 77.9498 19.4338 78.1055 19.4151C78.4078 19.3498 78.6837 19.1874 78.8957 18.9501C79.1077 18.7128 79.2455 18.4121 79.2903 18.0889C79.3114 17.9178 79.2914 17.7438 79.2322 17.583C79.1731 17.4222 79.0766 17.2798 78.9518 17.1689C78.5155 16.7866 78.0265 16.3167 77.4849 15.7591C77.2441 15.5147 76.994 15.2511 76.7422 14.9857Z" fill="white"/>
<path d="M93.5835 7.29392C94.0548 7.29646 94.5162 7.15886 94.9091 6.89861C95.302 6.63836 95.6088 6.26718 95.7903 5.83225C95.9718 5.39733 96.02 4.91829 95.9286 4.45593C95.8373 3.99357 95.6106 3.56879 95.2774 3.23553C94.9441 2.90228 94.5194 2.67558 94.057 2.58425C93.5947 2.49293 93.1156 2.54108 92.6806 2.72261C92.2457 2.90414 91.8745 3.21086 91.6143 3.60378C91.354 3.9967 91.2165 4.45811 91.219 4.9294C91.219 5.55651 91.4681 6.15791 91.9116 6.60134C92.355 7.04478 92.9564 7.29392 93.5835 7.29392Z" fill="white"/>
<path d="M101.384 7.29392C101.855 7.29646 102.316 7.15886 102.709 6.89861C103.102 6.63836 103.409 6.26718 103.59 5.83225C103.772 5.39733 103.82 4.91829 103.729 4.45593C103.637 3.99357 103.411 3.56879 103.077 3.23553C102.744 2.90228 102.319 2.67558 101.857 2.58425C101.395 2.49293 100.916 2.54108 100.481 2.72261C100.046 2.90414 99.6747 3.21086 99.4144 3.60378C99.1542 3.9967 99.0166 4.45811 99.0191 4.9294C99.0191 5.55651 99.2682 6.15791 99.7117 6.60134C100.155 7.04478 100.757 7.29392 101.384 7.29392Z" fill="white"/>
<path fill-rule="evenodd" clip-rule="evenodd" d="M108.134 9.97962C108.284 9.97962 108.433 9.98443 108.58 9.9939C109.575 10.0578 110.512 10.3335 111.347 10.7765L111.385 10.7967L111.407 10.8083C112.416 11.3554 113.273 12.1471 113.897 13.111C114.006 13.2798 114.108 13.4529 114.202 13.6298C114.652 14.4776 114.93 15.431 114.988 16.4431C114.995 16.5652 114.999 16.6873 115 16.8093L115 16.8459C115 20.638 111.926 23.7121 108.134 23.7121C106.076 23.7121 104.229 22.8068 102.971 21.3727C102.111 22.3557 100.988 23.0723 99.734 23.4381C98.4769 23.8047 97.1411 23.8034 95.8848 23.4342C94.6285 23.065 93.5044 22.3435 92.6456 21.355C91.7868 20.3666 91.2293 19.1527 91.0392 17.8571C90.8084 16.3201 91.1124 14.7506 91.9001 13.4108C90.4061 12.6023 89.094 11.4957 88.0449 10.1596C88.0335 10.1426 88.0269 10.1229 88.0256 10.1025C88.0243 10.0821 88.0284 10.0617 88.0376 10.0434C88.0467 10.0251 88.0605 10.0096 88.0776 9.9984C88.0947 9.98719 88.1145 9.98073 88.1349 9.97965H97.7986C98.7737 9.98162 99.737 10.1925 100.624 10.5982C101.51 11.0038 102.3 11.5948 102.939 12.3313C103.84 11.2939 105.029 10.5603 106.344 10.2153C106.914 10.0616 107.515 9.97962 108.134 9.97962ZM97.8114 20.3116C96.9003 20.3082 96.0276 19.9438 95.3845 19.2983C94.7414 18.6528 94.3803 17.7788 94.3803 16.8676C94.3806 16.1745 94.5909 15.4978 94.9833 14.9265C95.3757 14.3552 95.932 13.9161 96.5788 13.6671C97.2256 13.4181 97.9327 13.3709 98.6069 13.5315C99.2811 13.6922 99.8909 14.0534 100.356 14.5673C100.807 15.061 101.103 15.6755 101.209 16.3354C101.316 16.9953 101.227 17.6718 100.954 18.282C100.681 18.8921 100.236 19.4092 99.6728 19.7697C99.11 20.1303 98.4541 20.3186 97.7858 20.3116H97.8114ZM108.134 20.2424C109.83 20.2424 111.236 18.999 111.49 17.374C111.513 17.2066 111.524 17.0374 111.523 16.8676C111.523 16.1859 111.321 15.5195 110.942 14.9529C110.664 14.5373 110.3 14.1891 109.877 13.9302C109.367 13.6249 108.771 13.4493 108.134 13.4493C106.258 13.4493 104.737 14.97 104.737 16.8459C104.737 18.7217 106.258 20.2424 108.134 20.2424Z" fill="white"/>
</svg>
