<svg width="61" height="42" viewBox="0 0 61 42" fill="none" xmlns="http://www.w3.org/2000/svg">
<path d="M30.0381 12.737C30.7058 12.7406 31.3596 12.5456 31.9163 12.1769C32.4731 11.8081 32.9076 11.2822 33.1648 10.666C33.422 10.0497 33.4903 9.37096 33.3609 8.71584C33.2315 8.06072 32.9103 7.45884 32.4381 6.98665C31.9659 6.51446 31.364 6.19324 30.7089 6.06385C30.0538 5.93445 29.375 6.00268 28.7587 6.25989C28.1425 6.5171 27.6166 6.95169 27.2479 7.50842C26.8791 8.06515 26.6842 8.71893 26.6878 9.3867C26.6878 10.2753 27.0407 11.1274 27.669 11.7557C28.2973 12.384 29.1495 12.737 30.0381 12.737Z" fill="#4D6C56"/>
<path d="M18.986 12.737C19.6538 12.7406 20.3076 12.5456 20.8643 12.1769C21.421 11.8081 21.8556 11.2822 22.1128 10.666C22.37 10.0497 22.4383 9.37096 22.3089 8.71584C22.1795 8.06072 21.8583 7.45884 21.3861 6.98665C20.9139 6.51446 20.312 6.19324 19.6569 6.06385C19.0018 5.93445 18.323 6.00268 17.7068 6.25989C17.0905 6.5171 16.5646 6.95169 16.1958 7.50842C15.8271 8.06515 15.6321 8.71893 15.6357 9.3867C15.6357 10.2753 15.9887 11.1274 16.617 11.7557C17.2453 12.384 18.0975 12.737 18.986 12.737Z" fill="#4D6C56"/>
<path fill-rule="evenodd" clip-rule="evenodd" d="M40.2349 16.5626C40.0258 16.5492 39.8149 16.5424 39.6024 16.5424C38.7249 16.5424 37.8747 16.6585 37.066 16.8763C35.2038 17.3652 33.519 18.4046 32.2416 19.8745C31.3362 18.831 30.2177 17.9936 28.9613 17.4188C27.705 16.844 26.34 16.5452 24.9584 16.5424H11.2658C11.2369 16.544 11.2089 16.5531 11.1847 16.569C11.1605 16.5849 11.1409 16.6069 11.1279 16.6328C11.115 16.6587 11.1091 16.6876 11.1109 16.7165C11.1128 16.7454 11.1222 16.7733 11.1384 16.7974C12.6248 18.6905 14.484 20.2584 16.6008 21.404C15.4846 23.3023 15.054 25.5263 15.3809 27.704C15.6503 29.5397 16.4402 31.2597 17.657 32.6602C18.8739 34.0608 20.4667 35.0832 22.2468 35.6063C24.0268 36.1294 25.9196 36.1313 27.7007 35.6117C29.4774 35.0935 31.0687 34.0781 32.2872 32.6853C34.0703 34.7173 36.6865 36 39.6024 36C44.9754 36 49.3312 31.6443 49.3312 26.2712C49.3312 26.2539 49.3311 26.2366 49.331 26.2193C49.3302 26.0465 49.3248 25.8736 49.3147 25.7006C49.2318 24.2664 48.8382 22.9156 48.2002 21.7144C48.0674 21.4637 47.9234 21.2184 47.7685 20.9792C46.8838 19.6135 45.6705 18.4917 44.2398 17.7166C44.2118 17.7014 44.1838 17.6864 44.1557 17.6715C42.9726 17.0438 41.6446 16.6531 40.2349 16.5626ZM21.5378 29.7461C22.449 30.6608 23.6856 31.177 24.9766 31.1818H24.9402C25.8872 31.1918 26.8165 30.9249 27.6139 30.414C28.4114 29.9032 29.0422 29.1705 29.429 28.306C29.8158 27.4415 29.9416 26.4829 29.7911 25.5479C29.6406 24.6129 29.2204 23.7422 28.5818 23.0428C27.923 22.3145 27.059 21.8028 26.1037 21.5751C25.1484 21.3474 24.1466 21.4144 23.2301 21.7672C22.3136 22.12 21.5254 22.7421 20.9694 23.5516C20.4133 24.3611 20.1154 25.32 20.115 26.302C20.115 27.5931 20.6266 28.8315 21.5378 29.7461ZM44.3571 27.0195C43.9977 29.322 42.0058 31.0838 39.6024 31.0838C36.9444 31.0838 34.7898 28.9291 34.7898 26.2712C34.7898 23.6133 36.9444 21.4586 39.6024 21.4586C40.5054 21.4586 41.3504 21.7073 42.0725 22.14C42.6716 22.5068 43.1872 23.0002 43.581 23.589C44.118 24.3919 44.4047 25.3361 44.4047 26.302C44.4065 26.5426 44.3906 26.7824 44.3571 27.0195Z" fill="#4D6C56"/>
</svg>
