<svg width="46" height="36" viewBox="0 0 46 36" fill="none" xmlns="http://www.w3.org/2000/svg">
<path d="M22.713 8.08439C23.5143 8.08871 24.2988 7.85475 24.9669 7.41226C25.635 6.96976 26.1564 6.33865 26.4651 5.59915C26.7737 4.85965 26.8556 4.04515 26.7004 3.259C26.5451 2.47286 26.1596 1.7506 25.593 1.18398C25.0264 0.617352 24.3041 0.23189 23.518 0.0766177C22.7318 -0.0786548 21.9173 0.0032155 21.1778 0.311866C20.4383 0.620516 19.8072 1.14203 19.3647 1.81011C18.9222 2.47818 18.6883 3.26272 18.6926 4.06403C18.6926 5.1303 19.1161 6.15285 19.8701 6.90682C20.6241 7.66078 21.6467 8.08439 22.713 8.08439Z" fill="#4D6C56"/>
<path d="M9.4505 8.08439C10.2518 8.08871 11.0364 7.85475 11.7044 7.41226C12.3725 6.96976 12.894 6.33865 13.2027 5.59915C13.5113 4.85965 13.5932 4.04515 13.4379 3.259C13.2826 2.47286 12.8972 1.7506 12.3306 1.18398C11.7639 0.617352 11.0417 0.23189 10.2556 0.0766177C9.46946 -0.0786548 8.65489 0.0032155 7.91539 0.311866C7.17589 0.620516 6.54478 1.14203 6.10228 1.81011C5.65979 2.47818 5.42583 3.26272 5.43015 4.06403C5.43015 5.1303 5.85376 6.15285 6.60772 6.90682C7.36169 7.66078 8.38424 8.08439 9.4505 8.08439Z" fill="#4D6C56"/>
<path fill-rule="evenodd" clip-rule="evenodd" d="M34.9492 12.6751C34.6982 12.659 34.4451 12.6509 34.1901 12.6509C33.1372 12.6509 32.1169 12.7902 31.1465 13.0516C28.9119 13.6382 26.8901 14.8855 25.3573 16.6494C24.2707 15.3972 22.9285 14.3923 21.4209 13.7026C19.9132 13.0129 18.2752 12.6543 16.6173 12.6509H0.1863C0.151591 12.6527 0.118021 12.6637 0.0889467 12.6828C0.0598726 12.7018 0.0363435 12.7282 0.0207994 12.7593C0.00525525 12.7904 -0.0018115 12.8251 0.000395169 12.8598C0.00260184 12.8944 0.013977 12.928 0.0333353 12.9568C1.81706 15.2286 4.04808 17.1101 6.58828 18.4848C5.24886 20.7628 4.73211 23.4316 5.12438 26.0449C5.44762 28.2477 6.3955 30.3116 7.85574 31.9923C9.31598 33.6729 11.2273 34.8998 13.3634 35.5275C15.4995 36.1553 17.7707 36.1575 19.9081 35.5341C22.0401 34.9122 23.9497 33.6937 25.4119 32.0223C27.5516 34.4607 30.6911 36 34.1901 36C40.6378 36 45.8647 30.7731 45.8647 24.3254C45.8647 24.3047 45.8646 24.2839 45.8645 24.2632C45.8635 24.0558 45.857 23.8483 45.8449 23.6407C45.7454 21.9197 45.2731 20.2987 44.5075 18.8573C44.3482 18.5565 44.1754 18.2621 43.9895 17.9751C42.9279 16.3362 41.4719 14.9901 39.7551 14.0599C39.7215 14.0417 39.6878 14.0236 39.6541 14.0058C38.2344 13.2526 36.6408 12.7837 34.9492 12.6751ZM12.5127 28.4954C13.6061 29.5929 15.09 30.2124 16.6392 30.2182H16.5955C17.7319 30.2301 18.8471 29.9099 19.804 29.2969C20.7609 28.6838 21.518 27.8046 21.9821 26.7672C22.4462 25.7298 22.5973 24.5795 22.4167 23.4575C22.2361 22.3354 21.7317 21.2906 20.9655 20.4513C20.1749 19.5774 19.1381 18.9634 17.9918 18.6901C16.8454 18.4169 15.6432 18.4973 14.5434 18.9207C13.4436 19.344 12.4978 20.0905 11.8306 21.0619C11.1633 22.0333 10.8058 23.184 10.8053 24.3624C10.8053 25.9117 11.4192 27.3978 12.5127 28.4954ZM39.8958 25.2234C39.4645 27.9864 37.0742 30.1005 34.1901 30.1005C31.0006 30.1005 28.415 27.5149 28.415 24.3254C28.415 21.1359 31.0006 18.5503 34.1901 18.5503C35.2738 18.5503 36.2878 18.8488 37.1543 19.368C37.8732 19.8081 38.4919 20.4002 38.9645 21.1068C39.6089 22.0703 39.953 23.2034 39.953 24.3624C39.9551 24.6511 39.936 24.9388 39.8958 25.2234Z" fill="#4D6C56"/>
</svg>
