<svg width="136" height="32" viewBox="0 0 136 32" fill="none" xmlns="http://www.w3.org/2000/svg">
<path fill-rule="evenodd" clip-rule="evenodd" d="M16.8914 4.92C16.8914 5.27157 16.7988 5.61621 16.6241 5.91519C16.5295 6.05537 16.4028 6.16777 16.2559 6.24185C16.109 6.31592 15.9467 6.34923 15.7842 6.33864H1.11945C0.956699 6.352 0.793495 6.31995 0.646117 6.24564C0.498739 6.17133 0.372335 6.05738 0.279546 5.91519C0.0971297 5.61922 0 5.27341 0 4.92C0 4.56658 0.0971297 4.22082 0.279546 3.92485C0.372335 3.78265 0.498739 3.6687 0.646117 3.5944C0.793495 3.52009 0.956699 3.48803 1.11945 3.50139H7.01205V1.42636C6.99635 1.21521 7.03371 1.0034 7.12035 0.812496C7.20699 0.621591 7.3398 0.458365 7.50531 0.339413C7.83882 0.117632 8.22466 0 8.61849 0C9.01232 0 9.39816 0.117632 9.73167 0.339413C9.89374 0.461036 10.0232 0.625187 10.1074 0.815727C10.1915 1.00627 10.2274 1.21669 10.2116 1.42636V3.50139H15.7709C15.9355 3.48834 16.1005 3.52043 16.25 3.59461C16.3995 3.66879 16.5283 3.78254 16.6241 3.92485C16.7988 4.22383 16.8914 4.56842 16.8914 4.92ZM22.4236 0.678743C22.0353 0.671969 21.6541 0.790083 21.3304 1.01751C21.1705 1.13466 21.0421 1.29389 20.958 1.47952C20.8738 1.66516 20.8368 1.8708 20.8505 2.0762V7.93427H17.4643C17.3046 7.91903 17.144 7.9489 16.9988 8.02081C16.8536 8.09272 16.729 8.20412 16.6377 8.34364C16.4715 8.63737 16.3882 8.97537 16.3977 9.31763C16.3882 9.66882 16.4714 10.0159 16.6377 10.3198C16.7264 10.463 16.8501 10.5781 16.9956 10.6527C17.1412 10.7273 17.3032 10.7586 17.4643 10.7433H20.8505V13.3265H17.6242C17.4658 13.3098 17.306 13.3374 17.1609 13.4068C17.0158 13.4762 16.8905 13.5848 16.7977 13.7218C16.6331 14.0214 16.55 14.3634 16.5577 14.7099C16.5496 15.0609 16.6326 15.4076 16.7977 15.7121C16.8863 15.8553 17.0101 15.9703 17.1556 16.0449C17.3012 16.1195 17.4632 16.1508 17.6242 16.1356H20.8505V17.5472C20.8378 17.7504 20.8754 17.9537 20.9596 18.1369C21.0437 18.32 21.1716 18.4768 21.3304 18.5918C21.6541 18.8136 22.0314 18.9316 22.417 18.9316C22.8025 18.9316 23.1798 18.8136 23.5035 18.5918C23.6623 18.4768 23.7902 18.32 23.8743 18.1369C23.9585 17.9537 23.9961 17.7504 23.9834 17.5472V2.0762C23.9971 1.8708 23.9601 1.66516 23.8759 1.47952C23.7918 1.29389 23.6634 1.13466 23.5035 1.01751C23.184 0.79201 22.8076 0.673943 22.4236 0.678743ZM13.4915 17.1504C14.0588 16.7049 14.5154 16.1201 14.8219 15.4463C15.1285 14.7726 15.2758 14.0301 15.2513 13.2826C15.2772 12.539 15.1303 11.8 14.8235 11.1306C14.5166 10.4611 14.0593 9.88171 13.4915 9.44314C12.0089 8.51829 10.3196 8.03052 8.59883 8.03052C6.87808 8.03052 5.18868 8.51829 3.7061 9.44314C3.13676 9.88101 2.67745 10.46 2.36834 11.1293C2.05924 11.7986 1.90978 12.538 1.93301 13.2826C1.91114 14.0311 2.06102 14.774 2.36985 15.4476C2.67867 16.1213 3.13719 16.7056 3.7061 17.1504C5.18584 18.0839 6.87634 18.5767 8.59883 18.5767C10.3213 18.5767 12.0118 18.0839 13.4915 17.1504ZM4.82595 13.2826C4.81755 12.9075 4.89868 12.5362 5.0618 12.2031C5.22493 11.87 5.4648 11.5859 5.75918 11.377C6.63399 10.8945 7.60579 10.6426 8.59215 10.6426C9.57851 10.6426 10.5503 10.8945 11.4251 11.377C11.7211 11.5852 11.9629 11.8688 12.1283 12.2018C12.2937 12.5348 12.3774 12.9065 12.3717 13.2826C12.376 13.6605 12.2918 14.0337 12.1266 14.3687C11.9614 14.7037 11.7204 14.9901 11.4251 15.2024C10.5477 15.6758 9.57693 15.9226 8.59215 15.9226C7.60738 15.9226 6.63659 15.6758 5.75918 15.2024C5.46548 14.9894 5.22642 14.7025 5.06351 14.3674C4.90061 14.0322 4.81896 13.6595 4.82595 13.2826ZM22.4234 20.1581C22.0507 20.161 21.6861 20.2734 21.3702 20.4827C21.2111 20.5881 21.0815 20.7366 20.9947 20.9128C20.908 21.089 20.8674 21.2865 20.8769 21.485V23.7576H8.23852V21.485C8.25088 21.2877 8.21283 21.0905 8.12838 20.9141C8.04393 20.7378 7.91622 20.5888 7.7586 20.4827C7.44392 20.2704 7.07853 20.1576 6.70539 20.1576C6.33225 20.1576 5.96685 20.2704 5.65218 20.4827C5.49456 20.5888 5.36684 20.7378 5.28239 20.9141C5.19794 21.0905 5.1599 21.2877 5.17226 21.485V29.2063C5.09379 29.9228 5.2854 30.643 5.70552 31.2108C6.26562 31.6353 6.95388 31.8262 7.63862 31.7472H21.5168C22.2055 31.8232 22.8969 31.6326 23.4633 31.2108C23.871 30.6369 24.0569 29.9202 23.9832 29.2063V21.485C23.9955 21.2877 23.9575 21.0905 23.8731 20.9141C23.7886 20.7378 23.6609 20.5888 23.5033 20.4827C23.18 20.2676 22.8052 20.1549 22.4234 20.1581ZM20.8769 28.5288C20.8857 28.5977 20.8794 28.6679 20.8584 28.7338C20.8374 28.7997 20.8022 28.8595 20.7558 28.9087C20.7093 28.9579 20.6528 28.9951 20.5906 29.0173C20.5283 29.0395 20.4621 29.0463 20.397 29.0369H8.75847C8.41185 29.0369 8.23852 28.8675 8.23852 28.5288V26.4255H20.8769V28.5288ZM45.5534 19.255C45.8646 19.0333 46.2314 18.9154 46.6065 18.9162C47.0035 18.9073 47.3938 19.0253 47.7264 19.255C47.8862 19.3689 48.0148 19.5255 48.0991 19.709C48.1834 19.8924 48.2204 20.0962 48.2064 20.2996V29.2067C48.2801 29.9206 48.0942 30.6373 47.6864 31.2111C47.1242 31.6309 46.4377 31.8214 45.7533 31.7475H31.8618C31.1772 31.824 30.4899 31.6332 29.9287 31.2111C29.5086 30.6434 29.3169 29.9231 29.3954 29.2067V20.2996C29.3814 20.0962 29.4184 19.8924 29.5027 19.709C29.587 19.5255 29.7155 19.3689 29.8754 19.255C30.1866 19.0333 30.5534 18.9154 30.9286 18.9162C31.3209 18.911 31.7059 19.0288 32.0351 19.255C32.1984 19.3661 32.3304 19.5218 32.4172 19.7056C32.504 19.8894 32.5424 20.0946 32.5283 20.2996V23.1228H45.0734V20.2996C45.0594 20.0962 45.0964 19.8924 45.1807 19.709C45.2649 19.5255 45.3935 19.3689 45.5534 19.255ZM45.0503 28.5471C45.079 28.4549 45.0869 28.3569 45.0734 28.2609V25.8613H32.5283V28.2609C32.514 28.4527 32.5661 28.6434 32.675 28.7973C32.7484 28.8623 32.8336 28.9109 32.9252 28.94C33.0169 28.9691 33.1132 28.9782 33.2083 28.9667H44.4068C44.4975 28.981 44.59 28.9726 44.6771 28.9422C44.7641 28.9118 44.8432 28.8602 44.908 28.7916C44.9728 28.723 45.0215 28.6393 45.0503 28.5471ZM46.647 0.678941C46.25 0.669986 45.8597 0.788044 45.5271 1.01771C45.3651 1.13933 45.2356 1.30344 45.1515 1.49398C45.0674 1.68452 45.0314 1.89494 45.0472 2.10461V7.75095H39.4346C39.354 7.27013 39.2336 6.79777 39.0746 6.33937C38.7953 5.46969 38.3404 4.67489 37.7415 4.01026C37.0904 3.32895 36.3083 2.80418 35.4484 2.47164C33.3564 1.71874 31.088 1.71874 28.9959 2.47164C28.1361 2.80418 27.354 3.32895 26.7029 4.01026C26.104 4.67489 25.6491 5.46969 25.3697 6.33937C25.0541 7.26724 24.8962 8.24696 24.9031 9.23314C24.8953 10.2286 25.0532 11.2177 25.3697 12.1551C25.6491 13.0248 26.104 13.8196 26.7029 14.4842C27.354 15.1655 28.1361 15.6903 28.9959 16.0229C31.088 16.7758 33.3564 16.7758 35.4484 16.0229C36.3083 15.6903 37.0904 15.1655 37.7415 14.4842C38.3404 13.8196 38.7953 13.0248 39.0746 12.1551C39.2336 11.6967 39.354 11.2243 39.4346 10.7435H45.0472V16.1358C45.0311 16.3435 45.067 16.552 45.1513 16.7404C45.2355 16.9287 45.3652 17.0902 45.5271 17.2086C45.8597 17.4382 46.25 17.5563 46.647 17.5473C47.031 17.5521 47.4073 17.4341 47.7269 17.2086C47.8888 17.0902 48.0185 16.9287 48.1028 16.7404C48.187 16.552 48.2229 16.3435 48.2068 16.1358V2.20343C48.2226 1.99376 48.1867 1.78334 48.1025 1.5928C48.0184 1.40226 47.8889 1.23815 47.7269 1.11653C47.4184 0.855818 47.0411 0.702924 46.647 0.678941ZM36.2883 10.9835C36.1342 11.5066 35.8749 11.9881 35.5284 12.3951C35.1651 12.8326 34.7079 13.1715 34.1953 13.3832C32.9012 13.8664 31.4899 13.8664 30.1958 13.3832C29.6831 13.1715 29.226 12.8326 28.8626 12.3951C28.5161 11.9881 28.2568 11.5066 28.1027 10.9835C27.9391 10.426 27.8582 9.84508 27.8627 9.26136C27.8601 8.67315 27.941 8.08785 28.1027 7.52509C28.2627 7.00474 28.5213 6.52441 28.8626 6.11351C29.2304 5.68468 29.6866 5.35138 30.1958 5.13951C31.4899 4.65627 32.9012 4.65627 34.1953 5.13951C34.7044 5.35138 35.1606 5.68468 35.5284 6.11351C35.8698 6.52441 36.1283 7.00474 36.2883 7.52509C36.45 8.08785 36.5309 8.67315 36.5283 9.26136C36.5329 9.84508 36.4519 10.426 36.2883 10.9835ZM61.4444 21.5272C62.2842 21.499 63.1241 21.4425 63.9507 21.3719C64.0977 21.3444 64.2489 21.3558 64.3908 21.4051C64.5326 21.4544 64.6608 21.5399 64.7639 21.6543C64.9684 21.9341 65.0849 22.2747 65.0972 22.6283C65.1315 22.9825 65.0567 23.339 64.8839 23.6446C64.8058 23.788 64.6929 23.9067 64.557 23.9886C64.4211 24.0705 64.267 24.1125 64.1107 24.1104C62.8045 24.2144 61.3463 24.2801 59.7362 24.3526L59.7361 24.3526L59.7361 24.3526H59.736L59.7358 24.3526C59.1605 24.3786 58.5657 24.4054 57.9515 24.4351C55.6188 24.548 53.2062 24.548 50.727 24.548H50.7257C50.5615 24.5613 50.397 24.5278 50.2493 24.4508C50.1016 24.3738 49.9761 24.2563 49.8859 24.1104C49.702 23.808 49.609 23.4536 49.6192 23.0941C49.6057 22.7473 49.6993 22.4054 49.8859 22.1201C49.9802 21.9805 50.1073 21.8693 50.2545 21.7975C50.4018 21.7258 50.5642 21.6958 50.7257 21.7107H53.2188H55.7918V15.9232H53.2854C52.601 15.997 51.9145 15.8065 51.3523 15.3868C50.9445 14.813 50.7586 14.0962 50.8324 13.3824V6.16918C50.7586 5.45533 50.9445 4.73857 51.3523 4.16476C51.9145 3.74504 52.601 3.55454 53.2854 3.62835H62.4309C62.5992 3.61132 62.7688 3.64303 62.9214 3.7201C63.074 3.79718 63.204 3.91671 63.2975 4.06594C63.4652 4.37509 63.5526 4.72576 63.5508 5.08228C63.5541 5.43455 63.4665 5.78108 63.2975 6.08449C63.2005 6.22896 63.0694 6.34406 62.9174 6.41835C62.7654 6.49263 62.5977 6.52351 62.4309 6.50795H54.6186C54.4393 6.49116 54.2602 6.54108 54.112 6.64912C53.9906 6.80774 53.9331 7.01058 53.952 7.21374V12.3661C53.9385 12.462 53.9464 12.56 53.9751 12.6522C54.0039 12.7443 54.0526 12.8281 54.1174 12.8967C54.1822 12.9653 54.2613 13.0169 54.3483 13.0473C54.4354 13.0777 54.5279 13.0861 54.6186 13.0718H62.8042C62.971 13.0563 63.1387 13.0872 63.2907 13.1615C63.4427 13.2357 63.5737 13.3508 63.6708 13.4953C63.8369 13.8 63.9244 14.1457 63.9244 14.4975C63.9244 14.8494 63.8369 15.1951 63.6708 15.4998C63.5737 15.6443 63.4427 15.7593 63.2907 15.8336C63.1387 15.9079 62.971 15.9388 62.8042 15.9232H58.898V21.6401L61.4444 21.5272ZM73.9496 1.1013C73.588 1.09403 73.2335 1.20765 72.9364 1.42598C72.7833 1.53255 72.6595 1.68005 72.5776 1.85357C72.4956 2.02709 72.4585 2.22043 72.4698 2.41406V12.521H69.3635V2.75287C69.3777 2.55885 69.3417 2.36437 69.2595 2.19031C69.1774 2.01625 69.052 1.86915 68.8969 1.76474C68.5908 1.54422 68.2271 1.43068 67.857 1.44006C67.4998 1.43481 67.1501 1.54838 66.8571 1.76474C66.704 1.87132 66.5803 2.01882 66.4983 2.19234C66.4164 2.36585 66.3792 2.55924 66.3905 2.75287V27.625C66.3782 27.8207 66.4148 28.0164 66.4968 28.1924C66.5787 28.3684 66.703 28.5184 66.8571 28.6272C67.1527 28.8378 67.5007 28.9508 67.857 28.9519C68.2263 28.955 68.5882 28.842 68.8969 28.6272C69.0531 28.5205 69.179 28.3709 69.2611 28.1944C69.3433 28.0179 69.3787 27.8211 69.3635 27.625V15.4007H72.4698V29.0507C72.4588 29.2462 72.496 29.4415 72.5778 29.6172C72.6596 29.7929 72.7832 29.9431 72.9364 30.0529C73.2372 30.2612 73.5901 30.3694 73.9496 30.3635C74.3132 30.3697 74.6704 30.2616 74.9761 30.0529C75.1313 29.9451 75.2563 29.7953 75.3384 29.6191C75.4204 29.4429 75.4565 29.2466 75.4427 29.0507V2.39997C75.4569 2.20595 75.421 2.01148 75.3388 1.83742C75.2566 1.66336 75.1312 1.51625 74.9761 1.41185C74.6725 1.19828 74.3139 1.08976 73.9496 1.1013ZM97.3861 1.82201C97.7105 1.59619 98.0912 1.47818 98.4793 1.4832C98.8844 1.47626 99.2827 1.59397 99.6259 1.82201C99.7894 1.94296 99.9208 2.10654 100.007 2.29695C100.094 2.48735 100.132 2.69812 100.119 2.90891V29.3338C100.132 29.5446 100.094 29.7553 100.007 29.9457C99.9208 30.1361 99.7894 30.2997 99.6259 30.4207C99.2827 30.6487 98.8844 30.7664 98.4793 30.7595C98.0912 30.7645 97.7105 30.6465 97.3861 30.4207C97.2182 30.3034 97.0827 30.141 96.9937 29.95C96.9047 29.7589 96.8653 29.5463 96.8796 29.3338V2.90891C96.8653 2.69644 96.9047 2.48375 96.9937 2.29272C97.0827 2.1017 97.2182 1.93926 97.3861 1.82201ZM90.6696 17.7057L90.6693 17.7053C90.2979 17.3139 89.9229 16.9186 89.5603 16.5581C89.1315 16.1202 88.7349 15.6483 88.3738 15.1465C88.0652 14.6842 87.8059 14.1871 87.6005 13.6644C87.408 13.1367 87.2738 12.5872 87.2006 12.0269C87.1277 11.3616 87.092 10.6923 87.0939 10.0225V6.7476H92.3466C92.5108 6.76092 92.6753 6.72734 92.8231 6.65037C92.9708 6.5734 93.0963 6.45586 93.1865 6.31001C93.3692 6.00633 93.4663 5.65374 93.4663 5.29367C93.4663 4.9336 93.3692 4.581 93.1865 4.27733C93.0963 4.13147 92.9708 4.01394 92.8231 3.93697C92.6753 3.85999 92.5108 3.82641 92.3466 3.83974H78.4284C78.258 3.82162 78.0863 3.85276 77.9313 3.92981C77.7764 4.00687 77.6441 4.12696 77.5485 4.27733C77.3658 4.581 77.2687 4.9336 77.2687 5.29367C77.2687 5.65374 77.3658 6.00633 77.5485 6.31001C77.6441 6.46038 77.7764 6.58046 77.9313 6.65752C78.0863 6.73458 78.258 6.76572 78.4284 6.7476H83.8277V9.99422C83.8296 10.664 83.794 11.3334 83.721 11.9987C83.6479 12.559 83.5137 13.1085 83.3211 13.6361C83.1157 14.1589 82.8564 14.6559 82.5479 15.1183C82.1906 15.6233 81.7937 16.0955 81.3614 16.5299L81.3597 16.5316L81.3578 16.5336C80.6791 17.2522 80.027 17.9427 79.3483 18.6332C79.1968 18.7872 79.0467 18.9427 78.8963 19.0984L78.8961 19.0986C78.3713 19.6421 77.8428 20.1894 77.2419 20.6941C77.0943 20.816 76.9753 20.9726 76.8944 21.1513C76.8134 21.3301 76.7727 21.5262 76.7753 21.7245C76.7871 22.1204 76.9285 22.4996 77.1752 22.7973C77.4203 23.0959 77.746 23.3078 78.1084 23.4043C78.2972 23.4591 78.4962 23.4606 78.6857 23.4086C78.8752 23.3566 79.0485 23.2529 79.1883 23.1079C79.8638 22.4773 80.517 21.8421 81.148 21.2022L83.0278 19.2401C83.4944 18.7461 83.881 18.3085 84.1876 17.9556C84.4377 17.6564 84.6693 17.3405 84.8809 17.0098C85.0307 16.7831 85.1601 16.5421 85.2675 16.2899C85.3518 16.0946 85.4188 15.8914 85.4675 15.6829C85.4997 15.8817 85.5533 16.0759 85.6275 16.2617C85.7356 16.5119 85.8697 16.7487 86.0274 16.9675C86.2141 17.2309 86.454 17.5415 86.7473 17.8991C87.0406 18.2567 87.4139 18.6802 87.8672 19.1695L89.707 21.047C90.2669 21.6257 90.7868 22.148 91.2534 22.5997C91.393 22.7285 91.5563 22.8252 91.733 22.8835C91.9097 22.9418 92.096 22.9606 92.28 22.9385C92.6371 22.8613 92.9631 22.6695 93.2136 22.3891C93.4641 22.1088 93.6268 21.7534 93.6798 21.3716C93.7047 21.1694 93.6811 20.9639 93.6112 20.774C93.5413 20.584 93.4273 20.4157 93.2798 20.2847C92.7643 19.833 92.1867 19.2778 91.5467 18.619C91.2622 18.3303 90.9671 18.0192 90.6696 17.7057ZM110.567 8.6176C111.124 8.6206 111.669 8.45803 112.133 8.15055C112.597 7.84308 112.96 7.40454 113.174 6.89068C113.389 6.37682 113.446 5.81085 113.338 5.26458C113.23 4.71832 112.962 4.21644 112.568 3.82271C112.174 3.42898 111.673 3.16113 111.126 3.05324C110.58 2.94535 110.014 3.00223 109.5 3.21671C108.986 3.43118 108.548 3.79356 108.24 4.25779C107.933 4.72202 107.77 5.26716 107.773 5.82398C107.773 6.56489 108.068 7.27543 108.592 7.79934C109.115 8.32325 109.826 8.6176 110.567 8.6176ZM119.783 8.6176C120.339 8.6206 120.885 8.45803 121.349 8.15055C121.813 7.84308 122.175 7.40454 122.39 6.89068C122.604 6.37682 122.661 5.81085 122.553 5.26458C122.445 4.71832 122.178 4.21644 121.784 3.82271C121.39 3.42898 120.888 3.16113 120.342 3.05324C119.796 2.94535 119.23 3.00223 118.716 3.21671C118.202 3.43118 117.763 3.79356 117.456 4.25779C117.148 4.72202 116.986 5.26716 116.989 5.82398C116.989 6.56489 117.283 7.27543 117.807 7.79934C118.331 8.32325 119.042 8.6176 119.783 8.6176ZM127.758 11.7907C127.935 11.7907 128.111 11.7964 128.285 11.8076C129.461 11.883 130.568 12.2088 131.554 12.7322L131.599 12.756L131.625 12.7698C132.818 13.4161 133.829 14.3516 134.567 15.4903C134.696 15.6898 134.816 15.8943 134.927 16.1034C135.459 17.105 135.787 18.2314 135.856 19.4272C135.865 19.5714 135.869 19.7157 135.87 19.8598L135.87 19.903C135.87 24.3833 132.238 28.0153 127.758 28.0153C125.326 28.0153 123.145 26.9457 121.658 25.2514C120.642 26.4127 119.315 27.2594 117.834 27.6916C116.348 28.1248 114.77 28.1232 113.286 27.687C111.802 27.2508 110.473 26.3983 109.459 25.2305C108.444 24.0626 107.785 22.6285 107.561 21.0978C107.288 19.2819 107.647 17.4275 108.578 15.8446C106.813 14.8893 105.263 13.5819 104.023 12.0033C104.01 11.9833 104.002 11.96 104 11.9359C103.999 11.9118 104.004 11.8877 104.014 11.8661C104.025 11.8445 104.042 11.8261 104.062 11.8129C104.082 11.7997 104.105 11.792 104.129 11.7907H115.547C116.699 11.7931 117.837 12.0422 118.885 12.5215C119.932 13.0008 120.865 13.699 121.62 14.5692C122.685 13.3435 124.09 12.4768 125.643 12.0691C126.317 11.8876 127.026 11.7907 127.758 11.7907ZM115.562 23.9977C114.486 23.9937 113.454 23.5632 112.695 22.8006C111.935 22.0379 111.508 21.0053 111.508 19.9287C111.509 19.1099 111.757 18.3103 112.221 17.6353C112.684 16.9603 113.342 16.4416 114.106 16.1474C114.87 15.8532 115.705 15.7974 116.502 15.9872C117.299 16.1771 118.019 16.6037 118.568 17.211C119.101 17.7942 119.451 18.5202 119.577 19.2999C119.702 20.0795 119.597 20.8789 119.275 21.5997C118.952 22.3206 118.426 22.9315 117.761 23.3575C117.096 23.7835 116.321 24.006 115.532 23.9977H115.562ZM127.758 23.916C129.762 23.916 131.423 22.4469 131.722 20.527C131.75 20.3293 131.764 20.1293 131.762 19.9287C131.762 19.1233 131.523 18.336 131.075 17.6665C130.747 17.1755 130.317 16.7641 129.817 16.4583C129.215 16.0975 128.511 15.8901 127.758 15.8901C125.541 15.8901 123.745 17.6867 123.745 19.903C123.745 22.1193 125.541 23.916 127.758 23.916Z" fill="#4D6C56"/>
</svg>
